<svg xmlns="http://www.w3.org/2000/svg" viewBox="0 0 1199 820" preserveAspectRatio="xMidYMid" width="1199" height="820" xmlns:xlink="http://www.w3.org/1999/xlink" style="display:block;background:rgb(26, 27, 32);width:1199px;height:820px;;animation:none"><g><g transform="matrix(1,0,0,1,0,0)" style="transform:none;;animation:none"><path stroke-width="2" stroke-opacity="0" stroke="rgb(229, 50, 56)" fill="none" d="M0 435c200 0 400 164 600 164c200 0 400 -164 600 -164c200 0 400 164 600 164c200 0 400 -164 600 -164" transform="matrix(1,0,0,1,0,0)" style="fill:none;stroke:rgb(229, 50, 56);;animation:none"></path></g>
<g transform="matrix(0.9986295347545738,0.052335956242943835,-0.052335956242943835,0.9986295347545738,22.279335974239984,-30.81351501702011)" style="transform:none;;animation:none"><path stroke-width="2" stroke-opacity="0" stroke="rgb(229, 50, 56)" fill="none" d="M0 435.01409912109375c200 0 400 163.97181701660156 600 163.97181701660156c200 0 400 -163.97181701660156 600 -163.97181701660156c200 0 400 163.97181701660156 600 163.97181701660156c200 0 400 -163.97181701660156 600 -163.97181701660156" transform="matrix(1,0,0,1,-4.796000003814697,0)" style="fill:none;stroke:rgb(229, 50, 56);;animation:none"></path></g>
<g transform="matrix(0.9945218953682733,0.10452846326765347,-0.10452846326765347,0.9945218953682733,46.14079366645808,-60.41879082995035)" style="transform:none;;animation:none"><path stroke-width="2" stroke-opacity="0" stroke="rgb(229, 50, 56)" fill="none" d="M0 435.0567932128906c200 0 400 163.8864288330078 600 163.8864288330078c200 0 400 -163.8864288330078 600 -163.8864288330078c200 0 400 163.8864288330078 600 163.8864288330078c200 0 400 -163.8864288330078 600 -163.8864288330078" transform="matrix(1,0,0,1,-9.592000007629395,0)" style="fill:none;stroke:rgb(229, 50, 56);;animation:none"></path></g>
<g transform="matrix(0.9876883405951378,0.15643446504023087,-0.15643446504023087,0.9876883405951378,71.51897047970954,-88.7346814356249)" style="transform:none;;animation:none"><path stroke-width="2" stroke-opacity="0" stroke="rgb(228, 50, 56)" fill="none" d="M0 435.1286926269531c200 0 400 163.74261474609375 600 163.74261474609375c200 0 400 -163.74261474609375 600 -163.74261474609375c200 0 400 163.74261474609375 600 163.74261474609375c200 0 400 -163.74261474609375 600 -163.74261474609375" transform="matrix(1,0,0,1,-14.38800048828125,0)" style="fill:none;stroke:rgb(228, 50, 56);;animation:none"></path></g>
<g transform="matrix(0.9781476007338057,0.20791169081775934,-0.20791169081775934,0.9781476007338057,98.3443065953648,-115.683574946107)" style="transform:none;;animation:none"><path stroke-width="2" stroke-opacity="0" stroke="rgb(228, 50, 57)" fill="none" d="M0 435.23046875c200 0 400 163.53909301757812 600 163.53909301757812c200 0 400 -163.53909301757812 600 -163.53909301757812c200 0 400 163.53909301757812 600 163.53909301757812c200 0 400 -163.53909301757812 600 -163.53909301757812" transform="matrix(1,0,0,1,-19.18400001525879,0)" style="fill:none;stroke:rgb(228, 50, 57);;animation:none"></path></g>
<g transform="matrix(0.9659258262890683,0.25881904510252074,-0.25881904510252074,0.9659258262890683,126.54327563173706,-141.19160631747923)" style="transform:none;;animation:none"><path stroke-width="2" stroke-opacity="0" stroke="rgb(227, 50, 57)" fill="none" d="M0 435.36273193359375c200 0 400 163.2745361328125 600 163.2745361328125c200 0 400 -163.2745361328125 600 -163.2745361328125c200 0 400 163.2745361328125 600 163.2745361328125c200 0 400 -163.2745361328125 600 -163.2745361328125" transform="matrix(1,0,0,1,-23.979999542236328,0)" style="fill:none;stroke:rgb(227, 50, 57);;animation:none"></path></g>
<g transform="matrix(0.9510565162951535,0.3090169943749474,-0.3090169943749474,0.9510565162951535,156.03858617478392,-165.18885980879395)" style="transform:none;;animation:none"><path stroke-width="2" stroke-opacity="0" stroke="rgb(226, 51, 58)" fill="none" d="M0 435.52618408203125c200 0 400 162.9476318359375 600 162.9476318359375c200 0 400 -162.9476318359375 600 -162.9476318359375c200 0 400 162.9476318359375 600 162.9476318359375c200 0 400 -162.9476318359375 600 -162.9476318359375" transform="matrix(1,0,0,1,-28.7760009765625,0)" style="fill:none;stroke:rgb(226, 51, 58);;animation:none"></path></g>
<g transform="matrix(0.9335804264972017,0.35836794954530027,-0.35836794954530027,0.9335804264972017,186.74939362850068,-187.60956061626018)" style="transform:none;;animation:none"><path stroke-width="2" stroke-opacity="0" stroke="rgb(225, 51, 59)" fill="none" d="M0 435.72149658203125c200 0 400 162.55697631835938 600 162.55697631835938c200 0 400 -162.55697631835938 600 -162.55697631835938c200 0 400 162.55697631835938 600 162.55697631835938c200 0 400 -162.55697631835938 600 -162.55697631835938" transform="matrix(1,0,0,1,-33.57200241088867,0)" style="fill:none;stroke:rgb(225, 51, 59);;animation:none"></path></g>
<g transform="matrix(0.9135454576426009,0.4067366430758002,-0.4067366430758002,0.9135454576426009,218.59152180433887,-208.3922551574086)" style="transform:none;;animation:none"><path stroke-width="2" stroke-opacity="0" stroke="rgb(223, 51, 60)" fill="none" d="M0 435.94940185546875c200 0 400 162.10116577148438 600 162.10116577148438c200 0 400 -162.10116577148438 600 -162.10116577148438c200 0 400 162.10116577148438 600 162.10116577148438c200 0 400 -162.10116577148438 600 -162.10116577148438" transform="matrix(1,0,0,1,-38.36800003051758,0)" style="fill:none;stroke:rgb(223, 51, 60);;animation:none"></path></g>
<g transform="matrix(0.8910065241883679,0.45399049973954675,-0.45399049973954675,0.8910065241883679,251.4776936422876,-227.47997951108914)" style="transform:none;;animation:none"><path stroke-width="2" stroke-opacity="0" stroke="rgb(222, 52, 61)" fill="none" d="M0 436.21063232421875c200 0 400 161.57875061035156 600 161.57875061035156c200 0 400 -161.57875061035156 600 -161.57875061035156c200 0 400 161.57875061035156 600 161.57875061035156c200 0 400 -161.57875061035156 600 -161.57875061035156" transform="matrix(1,0,0,1,-43.163997650146484,0)" style="fill:none;stroke:rgb(222, 52, 61);;animation:none"></path></g>
<g transform="matrix(0.8660254037844387,0.49999999999999994,-0.49999999999999994,0.8660254037844387,285.31777043122895,-244.82041555161982)" style="transform:none;;animation:none"><path stroke-width="2" stroke-opacity="0" stroke="rgb(220, 52, 62)" fill="none" d="M0 436.5058898925781c200 0 400 160.98825073242188 600 160.98825073242188c200 0 400 -160.98825073242188 600 -160.98825073242188c200 0 400 160.98825073242188 600 160.98825073242188c200 0 400 -160.98825073242188 600 -160.98825073242188" transform="matrix(1,0,0,1,-47.959999084472656,0)" style="fill:none;stroke:rgb(220, 52, 62);;animation:none"></path></g>
<g transform="matrix(0.838670567945424,0.5446390350150271,-0.5446390350150271,0.838670567945424,320.01899887287937,-260.36603434913263)" style="transform:none;;animation:none"><path stroke-width="2" stroke-opacity="0" stroke="rgb(218, 52, 64)" fill="none" d="M0 436.8359375c200 0 400 160.328125 600 160.328125c200 0 400 -160.328125 600 -160.328125c200 0 400 160.328125 600 160.328125c200 0 400 -160.328125 600 -160.328125" transform="matrix(1,0,0,1,-52.75600051879883,0)" style="fill:none;stroke:rgb(218, 52, 64);;animation:none"></path></g>
<g transform="matrix(0.8090169943749475,0.5877852522924731,-0.5877852522924731,0.8090169943749475,355.486265312133,-274.0742264430661)" style="transform:none;;animation:none"><path stroke-width="2" stroke-opacity="0" stroke="rgb(215, 53, 65)" fill="none" d="M0 437.2015686035156c200 0 400 159.5968475341797 600 159.5968475341797c200 0 400 -159.5968475341797 600 -159.5968475341797c200 0 400 159.5968475341797 600 159.5968475341797c200 0 400 -159.5968475341797 600 -159.5968475341797" transform="matrix(1,0,0,1,-57.552001953125,0)" style="fill:none;stroke:rgb(215, 53, 65);;animation:none"></path></g>
<g transform="matrix(0.7771459614569709,0.6293203910498374,-0.6293203910498374,0.7771459614569709,391.62235643697926,-285.9074186317356)" style="transform:none;;animation:none"><path stroke-width="2" stroke-opacity="0" stroke="rgb(213, 54, 67)" fill="none" d="M0 437.6036071777344c200 0 400 158.7928009033203 600 158.7928009033203c200 0 400 -158.7928009033203 600 -158.7928009033203c200 0 400 158.7928009033203 600 158.7928009033203c200 0 400 -158.7928009033203 600 -158.7928009033203" transform="matrix(1,0,0,1,-62.347999572753906,0)" style="fill:none;stroke:rgb(213, 54, 67);;animation:none"></path></g>
<g transform="matrix(0.7431448254773942,0.6691306063588582,-0.6691306063588582,0.7431448254773942,428.328225733434,-295.8331769578672)" style="transform:none;;animation:none"><path stroke-width="2" stroke-opacity="0" stroke="rgb(210, 54, 69)" fill="none" d="M0 438.0428161621094c200 0 400 157.91436767578125 600 157.91436767578125c200 0 400 -157.91436767578125 600 -157.91436767578125c200 0 400 157.91436767578125 600 157.91436767578125c200 0 400 -157.91436767578125 600 -157.91436767578125" transform="matrix(1,0,0,1,-67.14400482177734,0)" style="fill:none;stroke:rgb(210, 54, 69);;animation:none"></path></g>
<g transform="matrix(0.7071067811865476,0.7071067811865475,-0.7071067811865475,0.7071067811865476,465.5032649651491,-303.82429560781975)" style="transform:none;;animation:none"><path stroke-width="2" stroke-opacity="0" stroke="rgb(207, 55, 71)" fill="none" d="M0 438.5200500488281c200 0 400 156.95989990234375 600 156.95989990234375c200 0 400 -156.95989990234375 600 -156.95989990234375c200 0 400 156.95989990234375 600 156.95989990234375c200 0 400 -156.95989990234375 600 -156.95989990234375" transform="matrix(1,0,0,1,-71.93999481201172,0)" style="fill:none;stroke:rgb(207, 55, 71);;animation:none"></path></g>
<g transform="matrix(0.6691306063588582,0.7431448254773942,-0.7431448254773942,0.6691306063588582,503.0455799335961,-309.85887148082975)" style="transform:none;;animation:none"><path stroke-width="2" stroke-opacity="0" stroke="rgb(203, 56, 73)" fill="none" d="M0 439.0361633300781c200 0 400 155.9276885986328 600 155.9276885986328c200 0 400 -155.9276885986328 600 -155.9276885986328c200 0 400 155.9276885986328 600 155.9276885986328c200 0 400 -155.9276885986328 600 -155.9276885986328" transform="matrix(1,0,0,1,-76.73600006103516,0)" style="fill:none;stroke:rgb(203, 56, 73);;animation:none"></path></g>
<g transform="matrix(0.6293203910498374,0.7771459614569709,-0.7771459614569709,0.6293203910498374,540.8522697629805,-313.9203642238874)" style="transform:none;;animation:none"><path stroke-width="2" stroke-opacity="0" stroke="rgb(200, 56, 76)" fill="none" d="M0 439.5920104980469c200 0 400 154.8159942626953 600 154.8159942626953c200 0 400 -154.8159942626953 600 -154.8159942626953c200 0 400 154.8159942626953 600 154.8159942626953c200 0 400 -154.8159942626953 600 -154.8159942626953" transform="matrix(1,0,0,1,-81.5320053100586,0)" style="fill:none;stroke:rgb(200, 56, 76);;animation:none"></path></g>
<g transform="matrix(0.5877852522924731,0.8090169943749475,-0.8090169943749475,0.5877852522924731,578.8197089443909,-315.99764156769504)" style="transform:none;;animation:none"><path stroke-width="2" stroke-opacity="0" stroke="rgb(196, 57, 78)" fill="none" d="M0 440.1884460449219c200 0 400 153.6230926513672 600 153.6230926513672c200 0 400 -153.6230926513672 600 -153.6230926513672c200 0 400 153.6230926513672 600 153.6230926513672c200 0 400 -153.6230926513672 600 -153.6230926513672" transform="matrix(1,0,0,1,-86.32799530029297,0)" style="fill:none;stroke:rgb(196, 57, 78);;animation:none"></path></g>
<g transform="matrix(0.5446390350150271,0.838670567945424,-0.838670567945424,0.5446390350150271,616.8438313661151,-316.0850098394428)" style="transform:none;;animation:none"><path stroke-width="2" stroke-opacity="0" stroke="rgb(191, 58, 81)" fill="none" d="M0 440.826416015625c200 0 400 152.34718322753906 600 152.34718322753906c200 0 400 -152.34718322753906 600 -152.34718322753906c200 0 400 152.34718322753906 600 152.34718322753906c200 0 400 -152.34718322753906 600 -152.34718322753906" transform="matrix(1,0,0,1,-91.1240005493164,0)" style="fill:none;stroke:rgb(191, 58, 81);;animation:none"></path></g>
<g transform="matrix(0.5000000000000001,0.8660254037844386,-0.8660254037844386,0.5000000000000001,654.8204155516197,-314.18222956877105)" style="transform:none;;animation:none"><path stroke-width="2" stroke-opacity="0" stroke="rgb(187, 59, 85)" fill="none" d="M0 441.50677490234375c200 0 400 150.98643493652344 600 150.98643493652344c200 0 400 -150.98643493652344 600 -150.98643493652344c200 0 400 150.98643493652344 600 150.98643493652344c200 0 400 -150.98643493652344 600 -150.98643493652344" transform="matrix(1,0,0,1,-95.91999816894531,0)" style="fill:none;stroke:rgb(187, 59, 85);;animation:none"></path></g>
<g transform="matrix(0.45399049973954686,0.8910065241883679,-0.8910065241883679,0.45399049973954686,692.6453703233725,-310.29451614414074)" style="transform:none;;animation:none"><path stroke-width="2" stroke-opacity="0" stroke="rgb(182, 60, 88)" fill="none" d="M0 442.23046875c200 0 400 149.53904724121094 600 149.53904724121094c200 0 400 -149.53904724121094 600 -149.53904724121094c200 0 400 149.53904724121094 600 149.53904724121094c200 0 400 -149.53904724121094 600 -149.53904724121094" transform="matrix(1,0,0,1,-100.71599578857422,0)" style="fill:none;stroke:rgb(182, 60, 88);;animation:none"></path></g>
<g transform="matrix(0.4067366430758002,0.9135454576426009,-0.9135454576426009,0.4067366430758002,730.2150201095242,-304.43252551781734)" style="transform:none;;animation:none"><path stroke-width="2" stroke-opacity="0" stroke="rgb(176, 62, 92)" fill="none" d="M0 442.9984130859375c200 0 400 148.00314331054688 600 148.00314331054688c200 0 400 -148.00314331054688 600 -148.00314331054688c200 0 400 148.00314331054688 600 148.00314331054688c200 0 400 -148.00314331054688 600 -148.00314331054688" transform="matrix(1,0,0,1,-105.51200103759766,0)" style="fill:none;stroke:rgb(176, 62, 92);;animation:none"></path></g>
<g transform="matrix(0.3583679495453004,0.9335804264972017,-0.9335804264972017,0.3583679495453004,767.4263891114451,-296.6123249986456)" style="transform:none;;animation:none"><path stroke-width="2" stroke-opacity="0" stroke="rgb(170, 63, 95)" fill="none" d="M0 443.8115539550781c200 0 400 146.37686157226562 600 146.37686157226562c200 0 400 -146.37686157226562 600 -146.37686157226562c200 0 400 146.37686157226562 600 146.37686157226562c200 0 400 -146.37686157226562 600 -146.37686157226562" transform="matrix(1,0,0,1,-110.30799865722656,0)" style="fill:none;stroke:rgb(170, 63, 95);;animation:none"></path></g>
<g transform="matrix(0.30901699437494745,0.9510565162951535,-0.9510565162951535,0.30901699437494745,804.1774835532319,-286.855349212673)" style="transform:none;;animation:none"><path stroke-width="2" stroke-opacity="0" stroke="rgb(165, 64, 99)" fill="none" d="M0 444.67083740234375c200 0 400 144.6583251953125 600 144.6583251953125c200 0 400 -144.6583251953125 600 -144.6583251953125c200 0 400 144.6583251953125 600 144.6583251953125c200 0 400 -144.6583251953125 600 -144.6583251953125" transform="matrix(1,0,0,1,-115.10400390625,0)" style="fill:none;stroke:rgb(165, 64, 99);;animation:none"></path></g>
<g transform="matrix(0.25881904510252074,0.9659258262890683,-0.9659258262890683,0.25881904510252074,840.3675712395568,-275.18834135233)" style="transform:none;;animation:none"><path stroke-width="2" stroke-opacity="0" stroke="rgb(158, 65, 104)" fill="none" d="M0 445.5771789550781c200 0 400 142.8456268310547 600 142.8456268310547c200 0 400 -142.8456268310547 600 -142.8456268310547c200 0 400 142.8456268310547 600 142.8456268310547c200 0 400 -142.8456268310547 600 -142.8456268310547" transform="matrix(1,0,0,1,-119.9000015258789,0)" style="fill:none;stroke:rgb(158, 65, 104);;animation:none"></path></g>
<g transform="matrix(0.20791169081775945,0.9781476007338056,-0.9781476007338056,0.20791169081775945,875.8974576556135,-261.6432798751978)" style="transform:none;;animation:none"><path stroke-width="2" stroke-opacity="0" stroke="rgb(152, 67, 108)" fill="none" d="M0 446.53155517578125c200 0 400 140.93690490722656 600 140.93690490722656c200 0 400 -140.93690490722656 600 -140.93690490722656c200 0 400 140.93690490722656 600 140.93690490722656c200 0 400 -140.93690490722656 600 -140.93690490722656" transform="matrix(1,0,0,1,-124.69599914550781,0)" style="fill:none;stroke:rgb(152, 67, 108);;animation:none"></path></g>
<g transform="matrix(0.15643446504023092,0.9876883405951378,-0.9876883405951378,0.15643446504023092,910.6697578523881,-246.25729085327976)" style="transform:none;;animation:none"><path stroke-width="2" stroke-opacity="0" stroke="rgb(145, 68, 113)" fill="none" d="M0 447.53485107421875c200 0 400 138.93028259277344 600 138.93028259277344c200 0 400 -138.93028259277344 600 -138.93028259277344c200 0 400 138.93028259277344 600 138.93028259277344c200 0 400 -138.93028259277344 600 -138.93028259277344" transform="matrix(1,0,0,1,-129.49200439453125,0)" style="fill:none;stroke:rgb(145, 68, 113);;animation:none"></path></g>
<g transform="matrix(0.10452846326765346,0.9945218953682733,-0.9945218953682733,0.10452846326765346,944.5891633720339,-229.07254621301774)" style="transform:none;;animation:none"><path stroke-width="2" stroke-opacity="0" stroke="rgb(138, 70, 117)" fill="none" d="M0 448.5880432128906c200 0 400 136.82388305664062 600 136.82388305664062c200 0 400 -136.82388305664062 600 -136.82388305664062c200 0 400 136.82388305664062 600 136.82388305664062c200 0 400 -136.82388305664062 600 -136.82388305664062" transform="matrix(1,0,0,1,-134.2880096435547,0)" style="fill:none;stroke:rgb(138, 70, 117);;animation:none"></path></g>
<g transform="matrix(0.052335956242943966,0.9986295347545738,-0.9986295347545738,0.052335956242943966,977.5627034817303,-210.13614814497407)" style="transform:none;;animation:none"><path stroke-width="2" stroke-opacity="0" stroke="rgb(131, 71, 122)" fill="none" d="M0 449.6920471191406c200 0 400 134.6158905029297 600 134.6158905029297c200 0 400 -134.6158905029297 600 -134.6158905029297c200 0 400 134.6158905029297 600 134.6158905029297c200 0 400 -134.6158905029297 600 -134.6158905029297" transform="matrix(1,0,0,1,-139.08399963378906,0)" style="fill:none;stroke:rgb(131, 71, 122);;animation:none"></path></g>
<g transform="matrix(6.123233995736766e-17,1,-1,6.123233995736766e-17,1009.5,-189.5)" style="transform:none;;animation:none"><path stroke-width="2" stroke-opacity="0" stroke="rgb(124, 73, 127)" fill="none" d="M0 450.8477478027344c200 0 400 132.3045196533203 600 132.3045196533203c200 0 400 -132.3045196533203 600 -132.3045196533203c200 0 400 132.3045196533203 600 132.3045196533203c200 0 400 -132.3045196533203 600 -132.3045196533203" transform="matrix(1,0,0,1,-143.87998962402344,0)" style="fill:none;stroke:rgb(124, 73, 127);;animation:none"></path></g>
<g transform="matrix(-0.05233595624294384,0.9986295347545738,-0.9986295347545738,-0.05233595624294384,1040.31351501702,-167.22066402576002)" style="transform:none;;animation:none"><path stroke-width="2" stroke-opacity="0" stroke="rgb(116, 75, 132)" fill="none" d="M0 452.0559997558594c200 0 400 129.88800048828125 600 129.88800048828125c200 0 400 -129.88800048828125 600 -129.88800048828125c200 0 400 129.88800048828125 600 129.88800048828125c200 0 400 -129.88800048828125 600 -129.88800048828125" transform="matrix(1,0,0,1,-148.67599487304688,0)" style="fill:none;stroke:rgb(116, 75, 132);;animation:none"></path></g>
<g transform="matrix(-0.10452846326765355,0.9945218953682733,-0.9945218953682733,-0.10452846326765355,1069.9187908299505,-143.35920633354192)" style="transform:none;;animation:none"><path stroke-width="2" stroke-opacity="0" stroke="rgb(109, 76, 137)" fill="none" d="M0 453.3176574707031c200 0 400 127.36466979980469 600 127.36466979980469c200 0 400 -127.36466979980469 600 -127.36466979980469c200 0 400 127.36466979980469 600 127.36466979980469c200 0 400 -127.36466979980469 600 -127.36466979980469" transform="matrix(1,0,0,1,-153.4720001220703,0)" style="fill:none;stroke:rgb(109, 76, 137);;animation:none"></path></g>
<g transform="matrix(-0.1564344650402308,0.9876883405951378,-0.9876883405951378,-0.1564344650402308,1098.234681435625,-117.98102952029046)" style="transform:none;;animation:none"><path stroke-width="2" stroke-opacity="0" stroke="rgb(102, 78, 142)" fill="none" d="M0 454.633544921875c200 0 400 124.7329330444336 600 124.7329330444336c200 0 400 -124.7329330444336 600 -124.7329330444336c200 0 400 124.7329330444336 600 124.7329330444336c200 0 400 -124.7329330444336 600 -124.7329330444336" transform="matrix(1,0,0,1,-158.26800537109375,0)" style="fill:none;stroke:rgb(102, 78, 142);;animation:none"></path></g>
<g transform="matrix(-0.20791169081775934,0.9781476007338057,-0.9781476007338057,-0.20791169081775934,1125.183574946107,-91.1556934046352)" style="transform:none;;animation:none"><path stroke-width="2" stroke-opacity="0" stroke="rgb(95, 79, 146)" fill="none" d="M0 456.0043640136719c200 0 400 121.99127960205078 600 121.99127960205078c200 0 400 -121.99127960205078 600 -121.99127960205078c200 0 400 121.99127960205078 600 121.99127960205078c200 0 400 -121.99127960205078 600 -121.99127960205078" transform="matrix(1,0,0,1,-163.0640106201172,0)" style="fill:none;stroke:rgb(95, 79, 146);;animation:none"></path></g>
<g transform="matrix(-0.25881904510252085,0.9659258262890683,-0.9659258262890683,-0.25881904510252085,1150.6916063174792,-62.95672436826288)" style="transform:none;;animation:none"><path stroke-width="2" stroke-opacity="0" stroke="rgb(87, 81, 151)" fill="none" d="M0 457.4308166503906c200 0 400 119.13833618164062 600 119.13833618164062c200 0 400 -119.13833618164062 600 -119.13833618164062c200 0 400 119.13833618164062 600 119.13833618164062c200 0 400 -119.13833618164062 600 -119.13833618164062" transform="matrix(1,0,0,1,-167.86000061035156,0)" style="fill:none;stroke:rgb(87, 81, 151);;animation:none"></path></g>
<g transform="matrix(-0.30901699437494734,0.9510565162951536,-0.9510565162951536,-0.30901699437494734,1174.688859808794,-33.4614138252162)" style="transform:none;;animation:none"><path stroke-width="2" stroke-opacity="0" stroke="rgb(81, 82, 156)" fill="none" d="M0 458.91357421875c200 0 400 116.1728515625 600 116.1728515625c200 0 400 -116.1728515625 600 -116.1728515625c200 0 400 116.1728515625 600 116.1728515625c200 0 400 -116.1728515625 600 -116.1728515625" transform="matrix(1,0,0,1,-172.65599060058594,0)" style="fill:none;stroke:rgb(81, 82, 156);;animation:none"></path></g>
<g transform="matrix(-0.35836794954530027,0.9335804264972017,-0.9335804264972017,-0.35836794954530027,1197.1095606162603,-2.750606371499316)" style="transform:none;;animation:none"><path stroke-width="2" stroke-opacity="0" stroke="rgb(74, 84, 160)" fill="none" d="M0 460.4531555175781c200 0 400 113.09371185302734 600 113.09371185302734c200 0 400 -113.09371185302734 600 -113.09371185302734c200 0 400 113.09371185302734 600 113.09371185302734c200 0 400 -113.09371185302734 600 -113.09371185302734" transform="matrix(1,0,0,1,-177.45199584960938,0)" style="fill:none;stroke:rgb(74, 84, 160);;animation:none"></path></g>
<g transform="matrix(-0.40673664307580026,0.9135454576426009,-0.9135454576426009,-0.40673664307580026,1217.8922551574087,29.091521804338868)" style="transform:none;;animation:none"><path stroke-width="2" stroke-opacity="0" stroke="rgb(68, 85, 165)" fill="none" d="M0 462.04998779296875c200 0 400 109.9000473022461 600 109.9000473022461c200 0 400 -109.9000473022461 600 -109.9000473022461c200 0 400 109.9000473022461 600 109.9000473022461c200 0 400 -109.9000473022461 600 -109.9000473022461" transform="matrix(1,0,0,1,-182.2480010986328,0)" style="fill:none;stroke:rgb(68, 85, 165);;animation:none"></path></g>
<g transform="matrix(-0.45399049973954675,0.8910065241883679,-0.8910065241883679,-0.45399049973954675,1236.9799795110891,61.97769364228759)" style="transform:none;;animation:none"><path stroke-width="2" stroke-opacity="0" stroke="rgb(61, 87, 169)" fill="none" d="M0 463.7044372558594c200 0 400 106.59114074707031 600 106.59114074707031c200 0 400 -106.59114074707031 600 -106.59114074707031c200 0 400 106.59114074707031 600 106.59114074707031c200 0 400 -106.59114074707031 600 -106.59114074707031" transform="matrix(1,0,0,1,-187.04400634765625,0)" style="fill:none;stroke:rgb(61, 87, 169);;animation:none"></path></g>
<g transform="matrix(-0.49999999999999983,0.8660254037844387,-0.8660254037844387,-0.49999999999999983,1254.3204155516198,95.81777043122895)" style="transform:none;;animation:none"><path stroke-width="2" stroke-opacity="0" stroke="rgb(56, 88, 173)" fill="none" d="M0 465.4167175292969c200 0 400 103.16655731201172 600 103.16655731201172c200 0 400 -103.16655731201172 600 -103.16655731201172c200 0 400 103.16655731201172 600 103.16655731201172c200 0 400 -103.16655731201172 600 -103.16655731201172" transform="matrix(1,0,0,1,-191.83999633789062,0)" style="fill:none;stroke:rgb(56, 88, 173);;animation:none"></path></g>
<g transform="matrix(-0.5446390350150272,0.838670567945424,-0.838670567945424,-0.5446390350150272,1269.8660343491326,130.51899887287942)" style="transform:none;;animation:none"><path stroke-width="2" stroke-opacity="0" stroke="rgb(50, 89, 176)" fill="none" d="M0 467.18695068359375c200 0 400 99.62608337402344 600 99.62608337402344c200 0 400 -99.62608337402344 600 -99.62608337402344c200 0 400 99.62608337402344 600 99.62608337402344c200 0 400 -99.62608337402344 600 -99.62608337402344" transform="matrix(1,0,0,1,-196.63600158691406,0)" style="fill:none;stroke:rgb(50, 89, 176);;animation:none"></path></g>
<g transform="matrix(-0.587785252292473,0.8090169943749475,-0.8090169943749475,-0.587785252292473,1283.574226443066,165.98626531213296)" style="transform:none;;animation:none"><path stroke-width="2" stroke-opacity="0" stroke="rgb(45, 90, 180)" fill="none" d="M0 469.01507568359375c200 0 400 95.9698715209961 600 95.9698715209961c200 0 400 -95.9698715209961 600 -95.9698715209961c200 0 400 95.9698715209961 600 95.9698715209961c200 0 400 -95.9698715209961 600 -95.9698715209961" transform="matrix(1,0,0,1,-201.43199157714844,0)" style="fill:none;stroke:rgb(45, 90, 180);;animation:none"></path></g>
<g transform="matrix(-0.6293203910498373,0.777145961456971,-0.777145961456971,-0.6293203910498373,1295.4074186317357,202.12235643697917)" style="transform:none;;animation:none"><path stroke-width="2" stroke-opacity="0" stroke="rgb(40, 91, 183)" fill="none" d="M0 470.90081787109375c200 0 400 92.19834899902344 600 92.19834899902344c200 0 400 -92.19834899902344 600 -92.19834899902344c200 0 400 92.19834899902344 600 92.19834899902344c200 0 400 -92.19834899902344 600 -92.19834899902344" transform="matrix(1,0,0,1,-206.22801208496094,0)" style="fill:none;stroke:rgb(40, 91, 183);;animation:none"></path></g>
<g transform="matrix(-0.6691306063588582,0.7431448254773942,-0.7431448254773942,-0.6691306063588582,1305.3331769578672,238.82822573343404)" style="transform:none;;animation:none"><path stroke-width="2" stroke-opacity="0" stroke="rgb(36, 92, 186)" fill="none" d="M0 472.8438415527344c200 0 400 88.31233215332031 600 88.31233215332031c200 0 400 -88.31233215332031 600 -88.31233215332031c200 0 400 88.31233215332031 600 88.31233215332031c200 0 400 -88.31233215332031 600 -88.31233215332031" transform="matrix(1,0,0,1,-211.0240020751953,0)" style="fill:none;stroke:rgb(36, 92, 186);;animation:none"></path></g>
<g transform="matrix(-0.7071067811865475,0.7071067811865476,-0.7071067811865476,-0.7071067811865475,1313.3242956078197,276.0032649651491)" style="transform:none;;animation:none"><path stroke-width="2" stroke-opacity="0" stroke="rgb(31, 93, 189)" fill="none" d="M0 474.8434753417969c200 0 400 84.31304168701172 600 84.31304168701172c200 0 400 -84.31304168701172 600 -84.31304168701172c200 0 400 84.31304168701172 600 84.31304168701172c200 0 400 -84.31304168701172 600 -84.31304168701172" transform="matrix(1,0,0,1,-215.82000732421875,0)" style="fill:none;stroke:rgb(31, 93, 189);;animation:none"></path></g>
<g transform="matrix(-0.743144825477394,0.6691306063588585,-0.6691306063588585,-0.743144825477394,1319.3588714808297,313.54557993359595)" style="transform:none;;animation:none"><path stroke-width="2" stroke-opacity="0" stroke="rgb(27, 94, 192)" fill="none" d="M0 476.89892578125c200 0 400 80.20214080810547 600 80.20214080810547c200 0 400 -80.20214080810547 600 -80.20214080810547c200 0 400 80.20214080810547 600 80.20214080810547c200 0 400 -80.20214080810547 600 -80.20214080810547" transform="matrix(1,0,0,1,-220.61599731445312,0)" style="fill:none;stroke:rgb(27, 94, 192);;animation:none"></path></g>
<g transform="matrix(-0.7771459614569709,0.6293203910498374,-0.6293203910498374,-0.7771459614569709,1323.4203642238874,351.35226976298054)" style="transform:none;;animation:none"><path stroke-width="2" stroke-opacity="0" stroke="rgb(24, 95, 194)" fill="none" d="M0 479.0091247558594c200 0 400 75.98174285888672 600 75.98174285888672c200 0 400 -75.98174285888672 600 -75.98174285888672c200 0 400 75.98174285888672 600 75.98174285888672c200 0 400 -75.98174285888672 600 -75.98174285888672" transform="matrix(1,0,0,1,-225.4119873046875,0)" style="fill:none;stroke:rgb(24, 95, 194);;animation:none"></path></g>
<g transform="matrix(-0.8090169943749473,0.5877852522924732,-0.5877852522924732,-0.8090169943749473,1325.497641567695,389.3197089443907)" style="transform:none;;animation:none"><path stroke-width="2" stroke-opacity="0" stroke="rgb(21, 96, 196)" fill="none" d="M0 481.17279052734375c200 0 400 71.65444946289062 600 71.65444946289062c200 0 400 -71.65444946289062 600 -71.65444946289062c200 0 400 71.65444946289062 600 71.65444946289062c200 0 400 -71.65444946289062 600 -71.65444946289062" transform="matrix(1,0,0,1,-230.2080078125,0)" style="fill:none;stroke:rgb(21, 96, 196);;animation:none"></path></g>
<g transform="matrix(-0.8386705679454239,0.5446390350150273,-0.5446390350150273,-0.8386705679454239,1325.5850098394428,427.3438313661149)" style="transform:none;;animation:none"><path stroke-width="2" stroke-opacity="0" stroke="rgb(18, 96, 198)" fill="none" d="M0 483.3883056640625c200 0 400 67.22340393066406 600 67.22340393066406c200 0 400 -67.22340393066406 600 -67.22340393066406c200 0 400 67.22340393066406 600 67.22340393066406c200 0 400 -67.22340393066406 600 -67.22340393066406" transform="matrix(1,0,0,1,-235.00399780273438,0)" style="fill:none;stroke:rgb(18, 96, 198);;animation:none"></path></g>
<g transform="matrix(-0.8660254037844387,0.49999999999999994,-0.49999999999999994,-0.8660254037844387,1323.682229568771,465.32041555161993)" style="transform:none;;animation:none"><path stroke-width="2" stroke-opacity="0" stroke="rgb(15, 97, 200)" fill="none" d="M0 485.6538391113281c200 0 400 62.69229507446289 600 62.69229507446289c200 0 400 -62.69229507446289 600 -62.69229507446289c200 0 400 62.69229507446289 600 62.69229507446289c200 0 400 -62.69229507446289 600 -62.69229507446289" transform="matrix(1,0,0,1,-239.8000030517578,0)" style="fill:none;stroke:rgb(15, 97, 200);;animation:none"></path></g>
<g transform="matrix(-0.8910065241883678,0.45399049973954686,-0.45399049973954686,-0.8910065241883678,1319.7945161441407,503.1453703233724)" style="transform:none;;animation:none"><path stroke-width="2" stroke-opacity="0" stroke="rgb(12, 97, 202)" fill="none" d="M0 487.9673156738281c200 0 400 58.06538009643555 600 58.06538009643555c200 0 400 -58.06538009643555 600 -58.06538009643555c200 0 400 58.06538009643555 600 58.06538009643555c200 0 400 -58.06538009643555 600 -58.06538009643555" transform="matrix(1,0,0,1,-244.5959930419922,0)" style="fill:none;stroke:rgb(12, 97, 202);;animation:none"></path></g>
<g transform="matrix(-0.9135454576426008,0.40673664307580043,-0.40673664307580043,-0.9135454576426008,1313.9325255178173,540.715020109524)" style="transform:none;;animation:none"><path stroke-width="2" stroke-opacity="0" stroke="rgb(10, 98, 203)" fill="none" d="M0 490.32623291015625c200 0 400 53.347503662109375 600 53.347503662109375c200 0 400 -53.347503662109375 600 -53.347503662109375c200 0 400 53.347503662109375 600 53.347503662109375c200 0 400 -53.347503662109375 600 -53.347503662109375" transform="matrix(1,0,0,1,-249.39199829101562,0)" style="fill:none;stroke:rgb(10, 98, 203);;animation:none"></path></g>
<g transform="matrix(-0.9335804264972017,0.3583679495453002,-0.3583679495453002,-0.9335804264972017,1306.1123249986454,577.9263891114452)" style="transform:none;;animation:none"><path stroke-width="2" stroke-opacity="0" stroke="rgb(8, 98, 205)" fill="none" d="M0 492.7279968261719c200 0 400 48.54399871826172 600 48.54399871826172c200 0 400 -48.54399871826172 600 -48.54399871826172c200 0 400 48.54399871826172 600 48.54399871826172c200 0 400 -48.54399871826172 600 -48.54399871826172" transform="matrix(1,0,0,1,-254.18800354003906,0)" style="fill:none;stroke:rgb(8, 98, 205);;animation:none"></path></g>
<g transform="matrix(-0.9510565162951535,0.3090169943749475,-0.3090169943749475,-0.9510565162951535,1296.355349212673,614.6774835532319)" style="transform:none;;animation:none"><path stroke-width="2" stroke-opacity="0" stroke="rgb(6, 99, 206)" fill="none" d="M0 495.1695251464844c200 0 400 43.66095733642578 600 43.66095733642578c200 0 400 -43.66095733642578 600 -43.66095733642578c200 0 400 43.66095733642578 600 43.66095733642578c200 0 400 -43.66095733642578 600 -43.66095733642578" transform="matrix(1,0,0,1,-258.9840087890625,0)" style="fill:none;stroke:rgb(6, 99, 206);;animation:none"></path></g>
<g transform="matrix(-0.9659258262890682,0.258819045102521,-0.258819045102521,-0.9659258262890682,1284.68834135233,650.8675712395566)" style="transform:none;;animation:none"><path stroke-width="2" stroke-opacity="0" stroke="rgb(5, 99, 207)" fill="none" d="M0 497.6475524902344c200 0 400 38.70491027832031 600 38.70491027832031c200 0 400 -38.70491027832031 600 -38.70491027832031c200 0 400 38.70491027832031 600 38.70491027832031c200 0 400 -38.70491027832031 600 -38.70491027832031" transform="matrix(1,0,0,1,-263.7799987792969,0)" style="fill:none;stroke:rgb(5, 99, 207);;animation:none"></path></g>
<g transform="matrix(-0.9781476007338057,0.20791169081775931,-0.20791169081775931,-0.9781476007338057,1271.1432798751978,686.3974576556136)" style="transform:none;;animation:none"><path stroke-width="2" stroke-opacity="0" stroke="rgb(4, 99, 208)" fill="none" d="M0 500.1585388183594c200 0 400 33.68293762207031 600 33.68293762207031c200 0 400 -33.68293762207031 600 -33.68293762207031c200 0 400 33.68293762207031 600 33.68293762207031c200 0 400 -33.68293762207031 600 -33.68293762207031" transform="matrix(1,0,0,1,-268.5760192871094,0)" style="fill:none;stroke:rgb(4, 99, 208);;animation:none"></path></g>
<g transform="matrix(-0.9876883405951377,0.15643446504023098,-0.15643446504023098,-0.9876883405951377,1255.7572908532798,721.169757852388)" style="transform:none;;animation:none"><path stroke-width="2" stroke-opacity="0" stroke="rgb(3, 99, 208)" fill="none" d="M0 502.69866943359375c200 0 400 28.602689743041992 600 28.602689743041992c200 0 400 -28.602689743041992 600 -28.602689743041992c200 0 400 28.602689743041992 600 28.602689743041992c200 0 400 -28.602689743041992 600 -28.602689743041992" transform="matrix(1,0,0,1,-273.37200927734375,0)" style="fill:none;stroke:rgb(3, 99, 208);;animation:none"></path></g>
<g transform="matrix(-0.9945218953682733,0.10452846326765373,-0.10452846326765373,-0.9945218953682733,1238.5725462130179,755.0891633720337)" style="transform:none;;animation:none"><path stroke-width="2" stroke-opacity="0" stroke="rgb(2, 100, 209)" fill="none" d="M0 505.2638854980469c200 0 400 23.47225570678711 600 23.47225570678711c200 0 400 -23.47225570678711 600 -23.47225570678711c200 0 400 23.47225570678711 600 23.47225570678711c200 0 400 -23.47225570678711 600 -23.47225570678711" transform="matrix(1,0,0,1,-278.1679992675781,0)" style="fill:none;stroke:rgb(2, 100, 209);;animation:none"></path></g>
<g transform="matrix(-0.9986295347545738,0.05233595624294381,-0.05233595624294381,-0.9986295347545738,1219.636148144974,788.0627034817305)" style="transform:none;;animation:none"><path stroke-width="2" stroke-opacity="0" stroke="rgb(1, 100, 209)" fill="none" d="M0 507.8499450683594c200 0 400 18.300119400024414 600 18.300119400024414c200 0 400 -18.300119400024414 600 -18.300119400024414c200 0 400 18.300119400024414 600 18.300119400024414c200 0 400 -18.300119400024414 600 -18.300119400024414" transform="matrix(1,0,0,1,-282.9639892578125,0)" style="fill:none;stroke:rgb(1, 100, 209);;animation:none"></path></g>
<g transform="matrix(-1,1.2246467991473532e-16,-1.2246467991473532e-16,-1,1199,820)" style="transform:none;;animation:none"><path stroke-width="2" stroke-opacity="0" stroke="rgb(1, 100, 210)" fill="none" d="M0 510.452392578125c200 0 400 13.095207214355469 600 13.095207214355469c200 0 400 -13.095207214355469 600 -13.095207214355469c200 0 400 13.095207214355469 600 13.095207214355469c200 0 400 -13.095207214355469 600 -13.095207214355469" transform="matrix(1,0,0,1,-287.7599792480469,0)" style="fill:none;stroke:rgb(1, 100, 210);;animation:none"></path></g>
<g transform="matrix(-0.9986295347545738,-0.052335956242943564,0.052335956242943564,-0.9986295347545738,1176.72066402576,850.8135150170199)" style="transform:none;;animation:none"><path stroke-width="2" stroke-opacity="0.01694915254237288" stroke="rgb(0, 100, 210)" fill="none" d="M0 513.0667114257812c200 0 400 7.866629600524902 600 7.866629600524902c200 0 400 -7.866629600524902 600 -7.866629600524902c200 0 400 7.866629600524902 600 7.866629600524902c200 0 400 -7.866629600524902 600 -7.866629600524902" transform="matrix(1,0,0,1,-292.5559997558594,0)" style="fill:none;stroke:rgb(0, 100, 210);;animation:none"></path></g>
<g transform="matrix(-0.9945218953682733,-0.1045284632676535,0.1045284632676535,-0.9945218953682733,1152.8592063335418,880.4187908299504)" style="transform:none;;animation:none"><path stroke-width="2" stroke-opacity="0.03389830508474576" stroke="rgb(0, 100, 210)" fill="none" d="M0 515.6881103515625c200 0 400 2.623809814453125 600 2.623809814453125c200 0 400 -2.623809814453125 600 -2.623809814453125c200 0 400 2.623809814453125 600 2.623809814453125c200 0 400 -2.623809814453125 600 -2.623809814453125" transform="matrix(1,0,0,1,-297.35198974609375,0)" style="fill:none;stroke:rgb(0, 100, 210);;animation:none"></path></g>
<g transform="matrix(-0.9876883405951378,-0.15643446504023073,0.15643446504023073,-0.9876883405951378,1127.4810295202906,908.7346814356249)" style="transform:none;;animation:none"><path stroke-width="2" stroke-opacity="0.05084745762711865" stroke="rgb(0, 100, 210)" fill="none" d="M0 518.3118896484375c200 0 400 -2.623809814453125 600 -2.623809814453125c200 0 400 2.623809814453125 600 2.623809814453125c200 0 400 -2.623809814453125 600 -2.623809814453125c200 0 400 2.623809814453125 600 2.623809814453125" transform="matrix(1,0,0,1,-302.14801025390625,0)" style="fill:none;stroke:rgb(0, 100, 210);;animation:none"></path></g>
<g transform="matrix(-0.9781476007338056,-0.2079116908177595,0.2079116908177595,-0.9781476007338056,1100.655693404635,935.6835749461071)" style="transform:none;;animation:none"><path stroke-width="2" stroke-opacity="0.06779661016949153" stroke="rgb(0, 100, 210)" fill="none" d="M0 520.933349609375c200 0 400 -7.866639614105225 600 -7.866639614105225c200 0 400 7.866639614105225 600 7.866639614105225c200 0 400 -7.866639614105225 600 -7.866639614105225c200 0 400 7.866639614105225 600 7.866639614105225" transform="matrix(1,0,0,1,-306.9440002441406,0)" style="fill:none;stroke:rgb(0, 100, 210);;animation:none"></path></g>
<g transform="matrix(-0.9659258262890683,-0.2588190451025208,0.2588190451025208,-0.9659258262890683,1072.456724368263,961.1916063174792)" style="transform:none;;animation:none"><path stroke-width="2" stroke-opacity="0.0847457627118644" stroke="rgb(1, 100, 210)" fill="none" d="M0 523.547607421875c200 0 400 -13.095178604125977 600 -13.095178604125977c200 0 400 13.095178604125977 600 13.095178604125977c200 0 400 -13.095178604125977 600 -13.095178604125977c200 0 400 13.095178604125977 600 13.095178604125977" transform="matrix(1,0,0,1,-311.739990234375,0)" style="fill:none;stroke:rgb(1, 100, 210);;animation:none"></path></g>
<g transform="matrix(-0.9510565162951536,-0.3090169943749473,0.3090169943749473,-0.9510565162951536,1042.9614138252164,985.1888598087938)" style="transform:none;;animation:none"><path stroke-width="2" stroke-opacity="0.1016949152542373" stroke="rgb(1, 100, 209)" fill="none" d="M0 526.1500854492188c200 0 400 -18.300119400024414 600 -18.300119400024414c200 0 400 18.300119400024414 600 18.300119400024414c200 0 400 -18.300119400024414 600 -18.300119400024414c200 0 400 18.300119400024414 600 18.300119400024414" transform="matrix(1,0,0,1,-316.5360107421875,0)" style="fill:none;stroke:rgb(1, 100, 209);;animation:none"></path></g>
<g transform="matrix(-0.9335804264972016,-0.35836794954530043,0.35836794954530043,-0.9335804264972016,1012.2506063714992,1007.6095606162603)" style="transform:none;;animation:none"><path stroke-width="2" stroke-opacity="0.11864406779661017" stroke="rgb(2, 101, 208)" fill="none" d="M0 528.7361450195312c200 0 400 -23.47225570678711 600 -23.47225570678711c200 0 400 23.47225570678711 600 23.47225570678711c200 0 400 -23.47225570678711 600 -23.47225570678711c200 0 400 23.47225570678711 600 23.47225570678711" transform="matrix(1,0,0,1,-321.3320007324219,0)" style="fill:none;stroke:rgb(2, 101, 208);;animation:none"></path></g>
<g transform="matrix(-0.9135454576426009,-0.4067366430758002,0.4067366430758002,-0.9135454576426009,980.4084781956611,1028.3922551574087)" style="transform:none;;animation:none"><path stroke-width="2" stroke-opacity="0.13559322033898305" stroke="rgb(3, 101, 208)" fill="none" d="M0 531.3013305664062c200 0 400 -28.602710723876953 600 -28.602710723876953c200 0 400 28.602710723876953 600 28.602710723876953c200 0 400 -28.602710723876953 600 -28.602710723876953c200 0 400 28.602710723876953 600 28.602710723876953" transform="matrix(1,0,0,1,-326.1280212402344,0)" style="fill:none;stroke:rgb(3, 101, 208);;animation:none"></path></g>
<g transform="matrix(-0.8910065241883679,-0.4539904997395467,0.4539904997395467,-0.8910065241883679,947.5223063577124,1047.479979511089)" style="transform:none;;animation:none"><path stroke-width="2" stroke-opacity="0.15254237288135594" stroke="rgb(4, 101, 207)" fill="none" d="M0 533.8414916992188c200 0 400 -33.68293762207031 600 -33.68293762207031c200 0 400 33.68293762207031 600 33.68293762207031c200 0 400 -33.68293762207031 600 -33.68293762207031c200 0 400 33.68293762207031 600 33.68293762207031" transform="matrix(1,0,0,1,-330.9239807128906,0)" style="fill:none;stroke:rgb(4, 101, 207);;animation:none"></path></g>
<g transform="matrix(-0.8660254037844386,-0.5000000000000001,0.5000000000000001,-0.8660254037844386,913.6822295687709,1064.82041555162)" style="transform:none;;animation:none"><path stroke-width="2" stroke-opacity="0.1694915254237288" stroke="rgb(5, 102, 206)" fill="none" d="M0 536.3524780273438c200 0 400 -38.70491027832031 600 -38.70491027832031c200 0 400 38.70491027832031 600 38.70491027832031c200 0 400 -38.70491027832031 600 -38.70491027832031c200 0 400 38.70491027832031 600 38.70491027832031" transform="matrix(1,0,0,1,-335.7200012207031,0)" style="fill:none;stroke:rgb(5, 102, 206);;animation:none"></path></g>
<g transform="matrix(-0.838670567945424,-0.5446390350150271,0.5446390350150271,-0.838670567945424,878.9810011271206,1080.3660343491326)" style="transform:none;;animation:none"><path stroke-width="2" stroke-opacity="0.1864406779661017" stroke="rgb(7, 102, 204)" fill="none" d="M0 538.8305053710938c200 0 400 -43.66097640991211 600 -43.66097640991211c200 0 400 43.66097640991211 600 43.66097640991211c200 0 400 -43.66097640991211 600 -43.66097640991211c200 0 400 43.66097640991211 600 43.66097640991211" transform="matrix(1,0,0,1,-340.5160217285156,0)" style="fill:none;stroke:rgb(7, 102, 204);;animation:none"></path></g>
<g transform="matrix(-0.8090169943749475,-0.587785252292473,0.587785252292473,-0.8090169943749475,843.5137346878671,1094.074226443066)" style="transform:none;;animation:none"><path stroke-width="2" stroke-opacity="0.2033898305084746" stroke="rgb(9, 103, 203)" fill="none" d="M0 541.27197265625c200 0 400 -48.54397964477539 600 -48.54397964477539c200 0 400 48.54397964477539 600 48.54397964477539c200 0 400 -48.54397964477539 600 -48.54397964477539c200 0 400 48.54397964477539 600 48.54397964477539" transform="matrix(1,0,0,1,-345.3119812011719,0)" style="fill:none;stroke:rgb(9, 103, 203);;animation:none"></path></g>
<g transform="matrix(-0.7771459614569708,-0.6293203910498376,0.6293203910498376,-0.7771459614569708,807.3776435630206,1105.9074186317357)" style="transform:none;;animation:none"><path stroke-width="2" stroke-opacity="0.22033898305084745" stroke="rgb(11, 103, 201)" fill="none" d="M0 543.6737670898438c200 0 400 -53.34751510620117 600 -53.34751510620117c200 0 400 53.34751510620117 600 53.34751510620117c200 0 400 -53.34751510620117 600 -53.34751510620117c200 0 400 53.34751510620117 600 53.34751510620117" transform="matrix(1,0,0,1,-350.1080017089844,0)" style="fill:none;stroke:rgb(11, 103, 201);;animation:none"></path></g>
<g transform="matrix(-0.7431448254773942,-0.6691306063588582,0.6691306063588582,-0.7431448254773942,770.671774266566,1115.8331769578672)" style="transform:none;;animation:none"><path stroke-width="2" stroke-opacity="0.23728813559322035" stroke="rgb(13, 104, 199)" fill="none" d="M0 546.03271484375c200 0 400 -58.06538009643555 600 -58.06538009643555c200 0 400 58.06538009643555 600 58.06538009643555c200 0 400 -58.06538009643555 600 -58.06538009643555c200 0 400 58.06538009643555 600 58.06538009643555" transform="matrix(1,0,0,1,-354.90399169921875,0)" style="fill:none;stroke:rgb(13, 104, 199);;animation:none"></path></g>
<g transform="matrix(-0.7071067811865477,-0.7071067811865475,0.7071067811865475,-0.7071067811865477,733.4967350348509,1123.8242956078197)" style="transform:none;;animation:none"><path stroke-width="2" stroke-opacity="0.2542372881355932" stroke="rgb(16, 105, 197)" fill="none" d="M0 548.3461303710938c200 0 400 -62.69231414794922 600 -62.69231414794922c200 0 400 62.69231414794922 600 62.69231414794922c200 0 400 -62.69231414794922 600 -62.69231414794922c200 0 400 62.69231414794922 600 62.69231414794922" transform="matrix(1,0,0,1,-359.70001220703125,0)" style="fill:none;stroke:rgb(16, 105, 197);;animation:none"></path></g>
<g transform="matrix(-0.6691306063588581,-0.7431448254773944,0.7431448254773944,-0.6691306063588581,695.9544200664038,1129.8588714808297)" style="transform:none;;animation:none"><path stroke-width="2" stroke-opacity="0.2711864406779661" stroke="rgb(19, 106, 194)" fill="none" d="M0 550.6116943359375c200 0 400 -67.22339630126953 600 -67.22339630126953c200 0 400 67.22339630126953 600 67.22339630126953c200 0 400 -67.22339630126953 600 -67.22339630126953c200 0 400 67.22339630126953 600 67.22339630126953" transform="matrix(1,0,0,1,-364.4960021972656,0)" style="fill:none;stroke:rgb(19, 106, 194);;animation:none"></path></g>
<g transform="matrix(-0.6293203910498378,-0.7771459614569706,0.7771459614569706,-0.6293203910498378,658.1477302370198,1133.9203642238874)" style="transform:none;;animation:none"><path stroke-width="2" stroke-opacity="0.288135593220339" stroke="rgb(22, 107, 191)" fill="none" d="M0 552.8272094726562c200 0 400 -71.65443420410156 600 -71.65443420410156c200 0 400 71.65443420410156 600 71.65443420410156c200 0 400 -71.65443420410156 600 -71.65443420410156c200 0 400 71.65443420410156 600 71.65443420410156" transform="matrix(1,0,0,1,-369.2919921875,0)" style="fill:none;stroke:rgb(22, 107, 191);;animation:none"></path></g>
<g transform="matrix(-0.5877852522924732,-0.8090169943749473,0.8090169943749473,-0.5877852522924732,620.1802910556092,1135.997641567695)" style="transform:none;;animation:none"><path stroke-width="2" stroke-opacity="0.3050847457627119" stroke="rgb(25, 108, 188)" fill="none" d="M0 554.9908447265625c200 0 400 -75.98174285888672 600 -75.98174285888672c200 0 400 75.98174285888672 600 75.98174285888672c200 0 400 -75.98174285888672 600 -75.98174285888672c200 0 400 75.98174285888672 600 75.98174285888672" transform="matrix(1,0,0,1,-374.0880126953125,0)" style="fill:none;stroke:rgb(25, 108, 188);;animation:none"></path></g>
<g transform="matrix(-0.544639035015027,-0.8386705679454242,0.8386705679454242,-0.544639035015027,582.1561686338848,1136.0850098394428)" style="transform:none;;animation:none"><path stroke-width="2" stroke-opacity="0.3220338983050847" stroke="rgb(29, 109, 185)" fill="none" d="M0 557.10107421875c200 0 400 -80.2021484375 600 -80.2021484375c200 0 400 80.2021484375 600 80.2021484375c200 0 400 -80.2021484375 600 -80.2021484375c200 0 400 80.2021484375 600 80.2021484375" transform="matrix(1,0,0,1,-378.8840026855469,0)" style="fill:none;stroke:rgb(29, 109, 185);;animation:none"></path></g>
<g transform="matrix(-0.5000000000000004,-0.8660254037844384,0.8660254037844384,-0.5000000000000004,544.1795844483805,1134.182229568771)" style="transform:none;;animation:none"><path stroke-width="2" stroke-opacity="0.3389830508474576" stroke="rgb(34, 110, 182)" fill="none" d="M0 559.156494140625c200 0 400 -84.31303405761719 600 -84.31303405761719c200 0 400 84.31303405761719 600 84.31303405761719c200 0 400 -84.31303405761719 600 -84.31303405761719c200 0 400 84.31303405761719 600 84.31303405761719" transform="matrix(1,0,0,1,-383.67999267578125,0)" style="fill:none;stroke:rgb(34, 110, 182);;animation:none"></path></g>
<g transform="matrix(-0.45399049973954697,-0.8910065241883678,0.8910065241883678,-0.45399049973954697,506.3546296766276,1130.2945161441407)" style="transform:none;;animation:none"><path stroke-width="2" stroke-opacity="0.3559322033898305" stroke="rgb(38, 112, 178)" fill="none" d="M0 561.1561889648438c200 0 400 -88.31233215332031 600 -88.31233215332031c200 0 400 88.31233215332031 600 88.31233215332031c200 0 400 -88.31233215332031 600 -88.31233215332031c200 0 400 88.31233215332031 600 88.31233215332031" transform="matrix(1,0,0,1,-388.47601318359375,0)" style="fill:none;stroke:rgb(38, 112, 178);;animation:none"></path></g>
<g transform="matrix(-0.4067366430758001,-0.913545457642601,0.913545457642601,-0.4067366430758001,468.78497989047577,1124.4325255178173)" style="transform:none;;animation:none"><path stroke-width="2" stroke-opacity="0.3728813559322034" stroke="rgb(43, 113, 174)" fill="none" d="M0 563.0991821289062c200 0 400 -92.1983642578125 600 -92.1983642578125c200 0 400 92.1983642578125 600 92.1983642578125c200 0 400 -92.1983642578125 600 -92.1983642578125c200 0 400 92.1983642578125 600 92.1983642578125" transform="matrix(1,0,0,1,-393.2720031738281,0)" style="fill:none;stroke:rgb(43, 113, 174);;animation:none"></path></g>
<g transform="matrix(-0.3583679495453007,-0.9335804264972015,0.9335804264972015,-0.3583679495453007,431.5736108885552,1116.6123249986456)" style="transform:none;;animation:none"><path stroke-width="2" stroke-opacity="0.3898305084745763" stroke="rgb(48, 115, 169)" fill="none" d="M0 564.9849243164062c200 0 400 -95.96985626220703 600 -95.96985626220703c200 0 400 95.96985626220703 600 95.96985626220703c200 0 400 -95.96985626220703 600 -95.96985626220703c200 0 400 95.96985626220703 600 95.96985626220703" transform="matrix(1,0,0,1,-398.0679931640625,0)" style="fill:none;stroke:rgb(48, 115, 169);;animation:none"></path></g>
<g transform="matrix(-0.30901699437494756,-0.9510565162951535,0.9510565162951535,-0.30901699437494756,394.82251644676813,1106.855349212673)" style="transform:none;;animation:none"><path stroke-width="2" stroke-opacity="0.4067796610169492" stroke="rgb(54, 116, 164)" fill="none" d="M0 566.8130493164062c200 0 400 -99.62608337402344 600 -99.62608337402344c200 0 400 99.62608337402344 600 99.62608337402344c200 0 400 -99.62608337402344 600 -99.62608337402344c200 0 400 99.62608337402344 600 99.62608337402344" transform="matrix(1,0,0,1,-402.8639831542969,0)" style="fill:none;stroke:rgb(54, 116, 164);;animation:none"></path></g>
<g transform="matrix(-0.25881904510252063,-0.9659258262890683,0.9659258262890683,-0.25881904510252063,358.6324287604431,1095.1883413523299)" style="transform:none;;animation:none"><path stroke-width="2" stroke-opacity="0.423728813559322" stroke="rgb(60, 118, 159)" fill="none" d="M0 568.583251953125c200 0 400 -103.16654968261719 600 -103.16654968261719c200 0 400 103.16654968261719 600 103.16654968261719c200 0 400 -103.16654968261719 600 -103.16654968261719c200 0 400 103.16654968261719 600 103.16654968261719" transform="matrix(1,0,0,1,-407.6600036621094,0)" style="fill:none;stroke:rgb(60, 118, 159);;animation:none"></path></g>
<g transform="matrix(-0.2079116908177598,-0.9781476007338056,0.9781476007338056,-0.2079116908177598,323.1025423443867,1081.643279875198)" style="transform:none;;animation:none"><path stroke-width="2" stroke-opacity="0.4406779661016949" stroke="rgb(66, 120, 154)" fill="none" d="M0 570.2955932617188c200 0 400 -106.59115600585938 600 -106.59115600585938c200 0 400 106.59115600585938 600 106.59115600585938c200 0 400 -106.59115600585938 600 -106.59115600585938c200 0 400 106.59115600585938 600 106.59115600585938" transform="matrix(1,0,0,1,-412.4560241699219,0)" style="fill:none;stroke:rgb(66, 120, 154);;animation:none"></path></g>
<g transform="matrix(-0.15643446504023104,-0.9876883405951377,0.9876883405951377,-0.15643446504023104,288.33024214761207,1066.2572908532798)" style="transform:none;;animation:none"><path stroke-width="2" stroke-opacity="0.4576271186440678" stroke="rgb(72, 122, 149)" fill="none" d="M0 571.9500122070312c200 0 400 -109.90003204345703 600 -109.90003204345703c200 0 400 109.90003204345703 600 109.90003204345703c200 0 400 -109.90003204345703 600 -109.90003204345703c200 0 400 109.90003204345703 600 109.90003204345703" transform="matrix(1,0,0,1,-417.2519836425781,0)" style="fill:none;stroke:rgb(72, 122, 149);;animation:none"></path></g>
<g transform="matrix(-0.10452846326765336,-0.9945218953682734,0.9945218953682734,-0.10452846326765336,254.4108366279661,1049.0725462130176)" style="transform:none;;animation:none"><path stroke-width="2" stroke-opacity="0.4745762711864407" stroke="rgb(79, 124, 143)" fill="none" d="M0 573.546875c200 0 400 -113.09371185302734 600 -113.09371185302734c200 0 400 113.09371185302734 600 113.09371185302734c200 0 400 -113.09371185302734 600 -113.09371185302734c200 0 400 113.09371185302734 600 113.09371185302734" transform="matrix(1,0,0,1,-422.0480041503906,0)" style="fill:none;stroke:rgb(79, 124, 143);;animation:none"></path></g>
<g transform="matrix(-0.052335956242944306,-0.9986295347545738,0.9986295347545738,-0.052335956242944306,221.43729651826987,1030.1361481449742)" style="transform:none;;animation:none"><path stroke-width="2" stroke-opacity="0.4915254237288136" stroke="rgb(86, 126, 137)" fill="none" d="M0 575.08642578125c200 0 400 -116.1728515625 600 -116.1728515625c200 0 400 116.1728515625 600 116.1728515625c200 0 400 -116.1728515625 600 -116.1728515625c200 0 400 116.1728515625 600 116.1728515625" transform="matrix(1,0,0,1,-426.843994140625,0)" style="fill:none;stroke:rgb(86, 126, 137);;animation:none"></path></g>
<g transform="matrix(-1.8369701987210297e-16,-1,1,-1.8369701987210297e-16,189.5000000000001,1009.5000000000001)" style="transform:none;;animation:none"><path stroke-width="2" stroke-opacity="0.5084745762711864" stroke="rgb(94, 129, 131)" fill="none" d="M0 576.5691528320312c200 0 400 -119.13834381103516 600 -119.13834381103516c200 0 400 119.13834381103516 600 119.13834381103516c200 0 400 -119.13834381103516 600 -119.13834381103516c200 0 400 119.13834381103516 600 119.13834381103516" transform="matrix(1,0,0,1,-431.6400146484375,0)" style="fill:none;stroke:rgb(94, 129, 131);;animation:none"></path></g>
<g transform="matrix(0.052335956242943946,-0.9986295347545738,0.9986295347545738,0.052335956242943946,158.68648498297983,987.22066402576)" style="transform:none;;animation:none"><path stroke-width="2" stroke-opacity="0.5254237288135594" stroke="rgb(101, 131, 124)" fill="none" d="M0 577.9956665039062c200 0 400 -121.99127960205078 600 -121.99127960205078c200 0 400 121.99127960205078 600 121.99127960205078c200 0 400 -121.99127960205078 600 -121.99127960205078c200 0 400 121.99127960205078 600 121.99127960205078" transform="matrix(1,0,0,1,-436.4360046386719,0)" style="fill:none;stroke:rgb(101, 131, 124);;animation:none"></path></g>
<g transform="matrix(0.10452846326765299,-0.9945218953682734,0.9945218953682734,0.10452846326765299,129.08120917005,963.3592063335421)" style="transform:none;;animation:none"><path stroke-width="2" stroke-opacity="0.5423728813559322" stroke="rgb(109, 133, 118)" fill="none" d="M0 579.366455078125c200 0 400 -124.73294067382812 600 -124.73294067382812c200 0 400 124.73294067382812 600 124.73294067382812c200 0 400 -124.73294067382812 600 -124.73294067382812c200 0 400 124.73294067382812 600 124.73294067382812" transform="matrix(1,0,0,1,-441.23199462890625,0)" style="fill:none;stroke:rgb(109, 133, 118);;animation:none"></path></g>
<g transform="matrix(0.15643446504023067,-0.9876883405951378,0.9876883405951378,0.15643446504023067,100.7653185643752,937.9810295202905)" style="transform:none;;animation:none"><path stroke-width="2" stroke-opacity="0.559322033898305" stroke="rgb(117, 136, 111)" fill="none" d="M0 580.682373046875c200 0 400 -127.36468505859375 600 -127.36468505859375c200 0 400 127.36468505859375 600 127.36468505859375c200 0 400 -127.36468505859375 600 -127.36468505859375c200 0 400 127.36468505859375 600 127.36468505859375" transform="matrix(1,0,0,1,-446.02801513671875,0)" style="fill:none;stroke:rgb(117, 136, 111);;animation:none"></path></g>
<g transform="matrix(0.20791169081775945,-0.9781476007338056,0.9781476007338056,0.20791169081775945,73.81642505389289,911.155693404635)" style="transform:none;;animation:none"><path stroke-width="2" stroke-opacity="0.576271186440678" stroke="rgb(124, 138, 104)" fill="none" d="M0 581.9439697265625c200 0 400 -129.8879852294922 600 -129.8879852294922c200 0 400 129.8879852294922 600 129.8879852294922c200 0 400 -129.8879852294922 600 -129.8879852294922c200 0 400 129.8879852294922 600 129.8879852294922" transform="matrix(1,0,0,1,-450.823974609375,0)" style="fill:none;stroke:rgb(124, 138, 104);;animation:none"></path></g>
<g transform="matrix(0.2588190451025203,-0.9659258262890684,0.9659258262890684,0.2588190451025203,48.308393682521,882.9567243682632)" style="transform:none;;animation:none"><path stroke-width="2" stroke-opacity="0.5932203389830508" stroke="rgb(132, 140, 98)" fill="none" d="M0 583.1522827148438c200 0 400 -132.30450439453125 600 -132.30450439453125c200 0 400 132.30450439453125 600 132.30450439453125c200 0 400 -132.30450439453125 600 -132.30450439453125c200 0 400 132.30450439453125 600 132.30450439453125" transform="matrix(1,0,0,1,-455.6199951171875,0)" style="fill:none;stroke:rgb(132, 140, 98);;animation:none"></path></g>
<g transform="matrix(0.30901699437494723,-0.9510565162951536,0.9510565162951536,0.30901699437494723,24.311140191206164,853.4614138252163)" style="transform:none;;animation:none"><path stroke-width="2" stroke-opacity="0.6101694915254238" stroke="rgb(140, 143, 91)" fill="none" d="M0 584.3079223632812c200 0 400 -134.61590576171875 600 -134.61590576171875c200 0 400 134.61590576171875 600 134.61590576171875c200 0 400 -134.61590576171875 600 -134.61590576171875c200 0 400 134.61590576171875 600 134.61590576171875" transform="matrix(1,0,0,1,-460.416015625,0)" style="fill:none;stroke:rgb(140, 143, 91);;animation:none"></path></g>
<g transform="matrix(0.3583679495453004,-0.9335804264972017,0.9335804264972017,0.3583679495453004,1.8904393837397038,822.7506063714993)" style="transform:none;;animation:none"><path stroke-width="2" stroke-opacity="0.6271186440677966" stroke="rgb(148, 145, 85)" fill="none" d="M0 585.4119262695312c200 0 400 -136.8238983154297 600 -136.8238983154297c200 0 400 136.8238983154297 600 136.8238983154297c200 0 400 -136.8238983154297 600 -136.8238983154297c200 0 400 136.8238983154297 600 136.8238983154297" transform="matrix(1,0,0,1,-465.2120056152344,0)" style="fill:none;stroke:rgb(148, 145, 85);;animation:none"></path></g>
<g transform="matrix(0.40673664307579976,-0.9135454576426011,0.9135454576426011,0.40673664307579976,-18.892255157408385,790.9084781956615)" style="transform:none;;animation:none"><path stroke-width="2" stroke-opacity="0.6440677966101694" stroke="rgb(155, 147, 78)" fill="none" d="M0 586.4651489257812c200 0 400 -138.93026733398438 600 -138.93026733398438c200 0 400 138.93026733398438 600 138.93026733398438c200 0 400 -138.93026733398438 600 -138.93026733398438c200 0 400 138.93026733398438 600 138.93026733398438" transform="matrix(1,0,0,1,-470.00799560546875,0)" style="fill:none;stroke:rgb(155, 147, 78);;animation:none"></path></g>
<g transform="matrix(0.45399049973954664,-0.8910065241883679,0.8910065241883679,0.45399049973954664,-37.97997951108903,758.0223063577125)" style="transform:none;;animation:none"><path stroke-width="2" stroke-opacity="0.6610169491525424" stroke="rgb(162, 150, 72)" fill="none" d="M0 587.4684448242188c200 0 400 -140.93692016601562 600 -140.93692016601562c200 0 400 140.93692016601562 600 140.93692016601562c200 0 400 -140.93692016601562 600 -140.93692016601562c200 0 400 140.93692016601562 600 140.93692016601562" transform="matrix(1,0,0,1,-474.8039855957031,0)" style="fill:none;stroke:rgb(162, 150, 72);;animation:none"></path></g>
<g></g></g><!-- [ldio] generated by https://loading.io --></svg>